<?xml version="1.0" standalone="no"?><!DOCTYPE svg PUBLIC "-//W3C//DTD SVG 1.1//EN" "http://www.w3.org/Graphics/SVG/1.1/DTD/svg11.dtd"><svg t="1536572646049" class="icon" style="" viewBox="0 0 1024 1024" version="1.1" xmlns="http://www.w3.org/2000/svg" p-id="2022" xmlns:xlink="http://www.w3.org/1999/xlink" width="128" height="128"><defs><style type="text/css"></style></defs><path d="M780.210611 999.647345c6.319577 9.245095-2.868379 24.352655-15.164699 24.352655H313.910408c-14.239046 0-16.901725-16.844586-12.170614-24.581211 30.717943-50.202353 131.419771-95.513604 237.766935-95.513604 103.250229 0 202.729282 40.065888 240.703882 95.74216z m-421.343214-868.616119c143.521818-120.460505 357.507488-101.707475 477.979421 41.768631s101.707475 357.530344-41.82577 477.956566-357.541772 101.707475-477.945138-41.78006-101.764614-357.530344 41.791487-477.945137z m-90.279668 225.893444a21.107158 21.107158 0 0 1 13.084838-4.696828 20.272928 20.272928 0 0 1 14.536169 6.331005 26.615361 26.615361 0 0 1 6.696694 12.570586 106.952838 106.952838 0 0 1 12.29632-5.645336c3.428342-1.428476 9.32509-3.816887 9.862197-5.222507 0 0 0.26284-2.491262-7.656631-10.125037a5.359641 5.359641 0 0 1 2.445551-9.073678c4.651117-1.142781 7.725197-2.81124 8.890833-4.868245a4.571122 4.571122 0 0 0 0.617102-2.159856c-21.392853 1.50847-43.802781 7.850903-60.075977 17.038859-0.239984 1.965583-0.479968 3.90831-0.697096 5.851037z m247.84626-166.343146a23.004174 23.004174 0 0 1 16.970292-0.708524c-0.948508-6.685267-2.822668-16.547463-4.239716-23.872688-5.713903-29.769435-6.125304-34.763386-3.325492-38.146017a6.376716 6.376716 0 0 1 4.571123-2.159855c3.428342 0 5.382497 2.788385 6.136732 3.816887a5.348213 5.348213 0 0 1 0.731379 1.428476c1.737027 5.21108 5.873892 11.553512 10.285026 18.28449 8.468004 12.993416 18.055934 27.701002 14.970426 41.940049-1.634176 7.530924-6.685267 14.033346-14.981854 19.312992-7.782336 4.971096-7.908042 7.119523-8.330871 14.284758s-1.051358 17.941656-10.193603 35.597616c6.673839 8.982256 6.273866 16.993148 5.965315 23.564136-0.354262 7.359507-0.628529 12.776287 8.685133 20.124367 4.411133-0.274267 7.508069-1.40562 9.256523-3.428342 3.576903-4.045443 2.616968-12.639154 1.691315-20.924313-1.017075-9.142245-1.999866-17.770239 2.285561-23.998393a19.42727 19.42727 0 0 1 6.948106-5.713903c3.942593-2.285561 3.942593-2.285561 2.525546-5.713903a5.371069 5.371069 0 0 1 4.673972-7.336652c14.239046-0.83423 28.352387 2.525545 41.894338 10.010759a35.014798 35.014798 0 0 1 6.856683-10.102181c9.336518-9.725063 22.158516-11.827779 33.414906-5.199652 8.445149 7.016673 10.673571 16.101779 7.0281 26.055398-6.628128 18.124501-30.935071 34.637681-50.990871 34.637681-8.365154 0-15.450394-2.799813-20.707184-8.170882a39.677343 39.677343 0 0 0-25.392586 24.16981c-7.999464 20.650046-2.822668 49.596679 13.096266 73.732206 14.856148 22.558489 26.146821 25.141174 33.380622 25.141173 9.245095 0 18.833025-5.016807 29.003772-10.285025 9.256523-4.84539 18.833025-9.850769 29.518023-11.93063a4.868245 4.868245 0 0 1 1.017075-0.10285 5.405352 5.405352 0 0 1 3.234069 1.142781c3.839743 2.914091 11.747785 10.753566 22.684196 21.587125 26.638216 26.352521 82.040221 81.205991 101.376068 81.205991 1.97701 0 2.514117-0.708524 2.788385-1.085642 1.462759-1.97701 3.976877-9.42794-4.068299-35.974733-2.616968-8.650849-5.633908-20.238645-9.062251-33.312055-10.15932-38.854541-23.792692-90.988193-39.871615-116.643618a70.852398 70.852398 0 0 1-13.519095 10.285026 5.371069 5.371069 0 0 1-7.016673-1.417048c-6.410999-8.605138-1.554182-19.061581 3.599759-30.135125 5.028235-10.822132 10.707854-23.072741 6.582416-34.683392-1.394192-1.474187-3.165502-2.936946-4.719684-2.936946-1.942727 0-4.571122 2.079861-7.153806 4.102582-3.725465 2.936946-7.942325 6.273866-13.393389 6.273866-8.719416 0-14.684731-8.707988-18.38734-15.290405a5.359641 5.359641 0 0 1 7.142379-7.382363c9.542218 4.993951 19.073009 0.777091 29.358034-4.571122 7.736625-3.988304 15.736089-8.12517 24.946901-8.12517a31.837868 31.837868 0 0 1 18.055933 5.839609c3.222641 2.285561 5.336785 5.51963 7.599491 8.993683 5.21108 7.999464 10.982122 16.376046 29.712296 14.856148-6.365288-17.141709-11.256389-45.208401 2.354129-59.893132a308.927884 308.927884 0 0 0-238.944-106.975694c3.428342 4.833962 4.799679 9.233667 4.068299 13.359106-0.788519 4.433989-3.782604 7.999464-8.913689 10.479298a5.371069 5.371069 0 0 1-7.210945-2.525545c-2.536973-5.405352-6.525277-7.999464-12.170614-7.999464-12.742004 0-32.386403 13.850501-41.894337 36.237573-5.393925 12.50202-10.822132 36.46613 10.079325 60.281678z m-48.248198 358.833113c-2.365556 17.141709 6.159588 33.140638 15.164699 50.099503 1.588465 2.97123 3.165502 5.931031 4.673973 8.902261a88.336942 88.336942 0 0 1 18.695891-2.102717c40.854407 0 65.824164 31.803585 89.993973 62.578667 7.748053 9.873625 15.747517 20.067228 24.146955 28.980916 5.713903-0.788519 11.427806-1.759882 17.347409-2.971229-2.525545-5.108229-5.028235-9.850769-8.993683-12.113475a5.359641 5.359641 0 0 1-2.674107-5.05109c0.788519-10.856416-0.879941-11.873491-2.959802-12.056336a5.371069 5.371069 0 0 1-4.833962-6.182443 82.360199 82.360199 0 0 1 11.142111-30.717943 14.536169 14.536169 0 0 1-7.39379-4.982523 5.359641 5.359641 0 0 1-0.548535-5.645336 46.705444 46.705444 0 0 1 5.713903-8.056604 41.025824 41.025824 0 0 0 4.205433-5.713903 96.222128 96.222128 0 0 1-1.531326-10.776421c-0.822802-8.148026-1.554182-15.198982-7.119523-21.609982a5.393925 5.393925 0 0 1-0.434257-6.445282c14.113341-21.644265 5.599625-39.723054-4.251144-60.658795-2.456978-5.21108-4.982523-10.582149-7.108095-15.998929-6.296721 0.125706-14.421891 6.033882-22.272795 11.747785-9.32509 6.776689-18.993014 13.816218-28.798071 13.816217a19.312992 19.312992 0 0 1-11.782068-3.965448c-8.570855 3.942593-17.016003 6.993817-25.232596 9.942191-18.593041 6.730978-36.214718 13.107694-55.162021 29.003772z m-87.274156-155.452447c8.205165-10.970694 12.799143-14.856148 17.553111-14.856148 4.4797 0 6.71955 3.554048 7.805191 5.256791 0.057139 0.114278 0.148561 0.228556 0.217129 0.354262 1.474187-0.868513 5.268219-3.782604 13.27911-13.553378-4.468272-3.885454-12.696293-5.98817-23.758409-5.988171-29.163761 0-70.349575 14.467603-82.988728 26.055398a18.513046 18.513046 0 0 1-3.576903 9.42794c-3.336919 4.902529-9.599357 10.616432-16.261769 10.616432-2.891235 0-9.22224-1.142781-11.553512-10.970694-2.491262 0.091422-4.4797 0.148561-6.045309 0.148562-3.005513 0-6.6167 0-8.787983-2.285561A310.836328 310.836328 0 0 0 337.02886 587.389237c0.719952 0.822802 4.365422 3.874026 17.404548 3.874027 29.426601 0 72.657992-14.456175 90.108252-30.295115-11.233533 1.314198-22.76419-4.571122-31.517889-9.336517-4.571122-2.491262-8.890833-4.84539-11.66779-5.21108h-0.091423c-13.050555 0-31.735018 20.204361-38.774546 27.81528-3.942593 4.022588-9.42794 7.816619-22.958463 1.017075-7.816619-3.999732-14.090485-13.176261-16.433185-23.998393-2.285561-10.605004-0.171417-20.970024 5.713903-28.409526a5.713903 5.713903 0 0 1 1.337053-1.142781c4.628262-2.868379 14.581881-0.891369 26.443944 1.622749a145.521684 145.521684 0 0 0 15.998928 2.868379c0.651385-7.770908-0.217128-16.536036-1.14278-25.723991-2.696962-26.695355-6.022454-59.927416 25.141173-94.96507v-0.057139a36.157579 36.157579 0 0 1-4.571122 0.36569c-6.742406 0-9.976475-3.302636-11.507801-6.068165a5.371069 5.371069 0 0 1 0.399973-5.78247z m-45.859786-197.255362a310.344932 310.344932 0 0 0-39.323081 63.115773c13.713367-3.256925 31.837868 3.839743 40.831552 15.450394a7.999464 7.999464 0 0 0 1.942727 2.616968 31.872151 31.872151 0 0 0 3.256924-2.285562c2.182711-1.634176 4.685401-3.496909 7.770909-3.496908a10.079325 10.079325 0 0 1 3.428341 0.845657 5.508203 5.508203 0 0 1 2.285562 2.365556c2.022722 4.102582 1.371337 8.090887 0.83423 11.302101-0.091422 0.548535-0.171417 1.085642-0.251412 1.588465 15.998929 8.993683 30.626521 7.245229 46.419749-5.359641-8.822266-11.747785-9.462224-22.615628-10.079326-33.140638a107.901346 107.901346 0 0 0-1.565609-14.787581c-0.742807-6.559561 2.70839-10.170747 5.245363-12.810571 2.868379-3.005513 5.142513-5.382497 4.068299-12.490592-0.788519-0.959936-4.068299-1.051358-6.239582-1.142781-7.039529-0.217128-17.678816-0.537107-25.57543-10.559293-3.142647-3.999732-4.571122-3.999732-5.188224-3.999732-2.137 0-5.713903 2.022722-10.193603 4.571122l-4.788251 2.651251a5.348213 5.348213 0 0 1-4.788251 0.171418 56.121956 56.121956 0 0 1-6.388144-3.588332z m573.67587 484.641832a31.243622 31.243622 0 0 0-44.294177-0.15999c-58.613218 58.156106-134.162444 98.599112-217.585429 113.192421a409.115461 409.115461 0 0 1-106.792849 4.673972c-188.558802-16.398902-335.93179-158.343682-367.278262-336.080351a409.972546 409.972546 0 0 1-4.571123-106.872844c10.959266-125.2259 77.160547-231.858759 172.559873-298.997121a31.3579 31.3579 0 0 0-36.066156-51.299421c-109.706939 77.149119-186.273241 200.592282-198.912394 344.765484a471.237015 471.237015 0 0 0 5.31393 123.260317c36.043301 205.243399 206.066201 368.546749 423.44593 387.756892a471.237015 471.237015 0 0 0 374.077807-135.990894 31.277905 31.277905 0 0 0 0.125706-44.271321z" p-id="2023" fill="#2CAF7D"></path></svg>