<?xml version="1.0" standalone="no"?><!DOCTYPE svg PUBLIC "-//W3C//DTD SVG 1.1//EN" "http://www.w3.org/Graphics/SVG/1.1/DTD/svg11.dtd"><svg t="1524130298516" class="icon" style="" viewBox="0 0 1024 1024" version="1.1" xmlns="http://www.w3.org/2000/svg" p-id="1505" xmlns:xlink="http://www.w3.org/1999/xlink" width="128" height="128"><defs><style type="text/css"></style></defs><path d="M263.107415 585.991188l16.593382-20.49321 135.991347 110.112397-16.593382 20.49321-135.991347-110.112397Z" p-id="1506" fill="#2CAF7D"></path><path d="M273.772342 676.926615l-29.793183-24.144404 34.218004-42.223583 29.793183 24.144404-34.218004 42.223583Z" p-id="1507" fill="#2CAF7D"></path><path d="M323.077478 745.603597l-37.256218-30.18377 48.281139-59.594035 37.256218 30.18377-48.281139 59.594035Z" p-id="1508" fill="#2CAF7D"></path><path d="M696.1152 112.2048l-9.0624 11.1872 8.6784 7.0144-65.3568 80.7168-8.192-6.656c-9.2672-7.5008-24.3456-4.5568-33.5104 6.7584l-110.6176 136.6272-52.3264 64.5888-130.2016 160.7936 109.2864 88.4736 104.1664-128.6144c-9.2416-13.312-14.6688-29.4144-14.6688-46.8224 0-45.3376 36.864-82.2272 82.2272-82.2272 11.2384 0 21.9648 2.2784 31.744 6.3744l89.6768-110.72c9.1392-11.264 9.216-26.3936-0.0512-33.8944l-9.1392-7.3984 65.3824-80.7168 8.6784 7.04 9.0624-11.1872L696.1152 112.2048z" p-id="1509" fill="#2CAF7D"></path><path d="M777.6256 843.9808 623.616 843.9808c27.9808-28.672 53.8368-68.3008 64.2048-116.736 8.2176-38.3232 5.8112-78.3616-7.2448-119.0656-7.9616-24.9088-20.0192-50.2016-35.9936-75.776-13.7984 20.2752-36.4032 34.0992-62.2848 35.8912 32.768 51.5072 44.6464 99.6352 35.3536 143.5648-4.1728 19.7376-12.6976 38.9888-25.344 57.3696-10.5984 15.36-24.1152 30.0288-40.1408 43.8016-16.9984 14.5664-33.3312 25.5488-43.7248 30.9248L247.424 843.9552c-8.1152 0-15.0272 2.6624-15.0272 6.0672l0 16.8192 0 16.768 0 37.4016 559.2064 0 0-37.4016 0-16.768 0-16.8192C791.6032 846.6176 785.7664 843.9808 777.6256 843.9808z" p-id="1510" fill="#2CAF7D"></path><path d="M576.5376 422.1184c-35.4304 0-64.1536 28.7232-64.1536 64.1536s28.7232 64.1792 64.1536 64.1792 64.1536-28.7488 64.1536-64.1792S611.968 422.1184 576.5376 422.1184zM576.5376 516.1216c-16.4864 0-29.824-13.3632-29.824-29.8496s13.3376-29.824 29.824-29.824 29.8496 13.3376 29.8496 29.824S593.024 516.1216 576.5376 516.1216z" p-id="1511" fill="#2CAF7D"></path></svg>