<?xml version="1.0" standalone="no"?><!DOCTYPE svg PUBLIC "-//W3C//DTD SVG 1.1//EN" "http://www.w3.org/Graphics/SVG/1.1/DTD/svg11.dtd"><svg t="1524105448600" class="icon" style="" viewBox="0 0 1024 1024" version="1.1" xmlns="http://www.w3.org/2000/svg" p-id="1553" xmlns:xlink="http://www.w3.org/1999/xlink" width="128" height="128"><defs><style type="text/css"></style></defs><path d="M905.846154 937.353846H669.538462c-17.329231 0-31.507692-14.178462-31.507693-31.507692V118.153846c0-17.329231 14.178462-31.507692 31.507693-31.507692h236.307692c17.329231 0 31.507692 14.178462 31.507692 31.507692v787.692308c0 17.329231-14.178462 31.507692-31.507692 31.507692z m-204.8-63.015384h173.292308V149.661538H701.046154v724.676924z" fill="#2CAF7D" p-id="1554"></path><path d="M905.846154 220.553846h-118.153846c-13.390769 0-23.630769-10.24-23.63077-23.630769s10.24-23.630769 23.63077-23.630769h118.153846c13.390769 0 23.630769 10.24 23.630769 23.630769s-10.24 23.630769-23.630769 23.630769zM905.846154 299.323077h-59.076923c-13.390769 0-23.630769-10.24-23.630769-23.630769s10.24-23.630769 23.630769-23.63077h59.076923c13.390769 0 23.630769 10.24 23.630769 23.63077s-10.24 23.630769-23.630769 23.630769zM905.846154 378.092308h-118.153846c-13.390769 0-23.630769-10.24-23.63077-23.63077s10.24-23.630769 23.63077-23.630769h118.153846c13.390769 0 23.630769 10.24 23.630769 23.630769s-10.24 23.630769-23.630769 23.63077zM905.846154 456.861538h-59.076923c-13.390769 0-23.630769-10.24-23.630769-23.630769s10.24-23.630769 23.630769-23.630769h59.076923c13.390769 0 23.630769 10.24 23.630769 23.630769s-10.24 23.630769-23.630769 23.630769zM905.846154 535.630769h-118.153846c-13.390769 0-23.630769-10.24-23.63077-23.630769s10.24-23.630769 23.63077-23.630769h118.153846c13.390769 0 23.630769 10.24 23.630769 23.630769s-10.24 23.630769-23.630769 23.630769zM905.846154 614.4h-59.076923c-13.390769 0-23.630769-10.24-23.630769-23.630769s10.24-23.630769 23.630769-23.630769h59.076923c13.390769 0 23.630769 10.24 23.630769 23.630769s-10.24 23.630769-23.630769 23.630769zM905.846154 693.169231h-118.153846c-13.390769 0-23.630769-10.24-23.63077-23.630769s10.24-23.630769 23.63077-23.63077h118.153846c13.390769 0 23.630769 10.24 23.630769 23.63077s-10.24 23.630769-23.630769 23.630769zM905.846154 771.938462h-59.076923c-13.390769 0-23.630769-10.24-23.630769-23.63077s10.24-23.630769 23.630769-23.630769h59.076923c13.390769 0 23.630769 10.24 23.630769 23.630769s-10.24 23.630769-23.630769 23.63077zM905.846154 850.707692h-118.153846c-13.390769 0-23.630769-10.24-23.63077-23.630769s10.24-23.630769 23.63077-23.630769h118.153846c13.390769 0 23.630769 10.24 23.630769 23.630769s-10.24 23.630769-23.630769 23.630769z" fill="#2CAF7D" p-id="1555"></path><path d="M590.769231 937.353846H118.153846c-17.329231 0-31.507692-14.178462-31.507692-31.507692V118.153846c0-14.178462 9.452308-26.781538 22.843077-30.72s28.356923 2.363077 35.446154 14.178462l472.615384 787.692307c5.513846 9.452308 6.301538 22.055385 0.787693 31.507693S601.796923 937.353846 590.769231 937.353846z m-441.107693-63.015384h385.181539L149.661538 231.581538V874.338462z" fill="#2CAF7D" p-id="1556"></path><path d="M397.784615 807.384615h-165.415384v-275.692307z" fill="#2CAF7D" p-id="1557"></path></svg>