<?xml version="1.0" standalone="no"?><!DOCTYPE svg PUBLIC "-//W3C//DTD SVG 1.1//EN" "http://www.w3.org/Graphics/SVG/1.1/DTD/svg11.dtd"><svg t="1524105944716" class="icon" style="" viewBox="0 0 1024 1024" version="1.1" xmlns="http://www.w3.org/2000/svg" p-id="5018" xmlns:xlink="http://www.w3.org/1999/xlink" width="128" height="128"><defs><style type="text/css"></style></defs><path d="M236.307692 275.692308h393.846154v157.538461H236.307692z" fill="#2CAF7D" p-id="5019"></path><path d="M630.153846 464.738462H236.307692c-17.329231 0-31.507692-14.178462-31.507692-31.507693V275.692308c0-17.329231 14.178462-31.507692 31.507692-31.507693h393.846154c17.329231 0 31.507692 14.178462 31.507692 31.507693v157.538461c0 17.329231-14.178462 31.507692-31.507692 31.507693z m-362.338461-63.015385h330.830769V307.2H267.815385v94.523077z" fill="#2CAF7D" p-id="5020"></path><path d="M590.769231 622.276923H275.692308c-22.055385 0-39.384615-17.329231-39.384616-39.384615s17.329231-39.384615 39.384616-39.384616h315.076923c22.055385 0 39.384615 17.329231 39.384615 39.384616s-17.329231 39.384615-39.384615 39.384615zM590.769231 779.815385H275.692308c-22.055385 0-39.384615-17.329231-39.384616-39.384616s17.329231-39.384615 39.384616-39.384615h315.076923c22.055385 0 39.384615 17.329231 39.384615 39.384615s-17.329231 39.384615-39.384615 39.384616z" fill="#2CAF7D" p-id="5021"></path><path d="M827.076923 937.353846H196.923077c-60.652308 0-110.276923-49.624615-110.276923-110.276923V118.153846c0-17.329231 14.178462-31.507692 31.507692-31.507692h630.153846c17.329231 0 31.507692 14.178462 31.507693 31.507692v708.923077c0 25.993846 21.267692 47.261538 47.261538 47.261539 17.329231 0 31.507692 14.178462 31.507692 31.507692s-14.178462 31.507692-31.507692 31.507692zM149.661538 149.661538v677.415385c0 25.993846 21.267692 47.261538 47.261539 47.261539h530.904615c-7.089231-14.178462-11.027692-30.72-11.027692-47.261539V149.661538H149.661538z" fill="#2CAF7D" p-id="5022"></path><path d="M748.307692 827.076923c0 43.323077 35.446154 78.769231 78.769231 78.769231s78.769231-35.446154 78.769231-78.769231V512H748.307692v315.076923z" fill="#2CAF7D" p-id="5023"></path><path d="M827.076923 937.353846c-60.652308 0-110.276923-49.624615-110.276923-110.276923V512c0-17.329231 14.178462-31.507692 31.507692-31.507692h157.538462c17.329231 0 31.507692 14.178462 31.507692 31.507692v315.076923c0 60.652308-49.624615 110.276923-110.276923 110.276923z m-47.261538-393.846154v283.569231c0 25.993846 21.267692 47.261538 47.261538 47.261539s47.261538-21.267692 47.261539-47.261539V543.507692H779.815385z" fill="#2CAF7D" p-id="5024"></path></svg>