<?xml version="1.0" standalone="no"?><!DOCTYPE svg PUBLIC "-//W3C//DTD SVG 1.1//EN" "http://www.w3.org/Graphics/SVG/1.1/DTD/svg11.dtd"><svg t="1524105969978" class="icon" style="" viewBox="0 0 1024 1024" version="1.1" xmlns="http://www.w3.org/2000/svg" p-id="5363" xmlns:xlink="http://www.w3.org/1999/xlink" width="128" height="128"><defs><style type="text/css"></style></defs><path d="M778 878H247c-64.5 0-117-52.5-117-117V264c0-64.5 52.5-117 117-117h531c64.5 0 117 52.5 117 117v497c0 64.5-52.5 117-117 117zM247 181c-45.8 0-83 37.2-83 83v497c0 45.8 37.2 83 83 83h531c45.8 0 83-37.2 83-83V264c0-45.8-37.2-83-83-83H247z" fill="#2CAF7D" p-id="5364"></path><path d="M804.8 711.1a17 17 0 0 1-13.6-6.8L554.8 390.5v303.6c0 9.4-7.6 17-17 17H227.5c-9.4 0-17-7.6-17-17V339.7c0-9.4 7.6-17 17-17h243.4c9.4 0 17 7.6 17 17s-7.6 17-17 17H244.5v320.4h276.3V339.7c0-7.3 4.7-13.8 11.6-16.1 6.9-2.3 14.6 0.1 19 5.9l236.4 313.8V339.7c0-9.4 7.6-17 17-17s17 7.6 17 17v354.4c0 7.3-4.7 13.8-11.6 16.1-1.8 0.6-3.6 0.9-5.4 0.9z" fill="#2CAF7D" p-id="5365"></path><path d="M466.8 547.8H227.5c-9.4 0-17-7.6-17-17s7.6-17 17-17h239.3c9.4 0 17 7.6 17 17s-7.6 17-17 17z" fill="#2CAF7D" p-id="5366"></path></svg>