<?xml version="1.0" standalone="no"?><!DOCTYPE svg PUBLIC "-//W3C//DTD SVG 1.1//EN" "http://www.w3.org/Graphics/SVG/1.1/DTD/svg11.dtd"><svg t="1536572727906" class="icon" style="" viewBox="0 0 1024 1024" version="1.1" xmlns="http://www.w3.org/2000/svg" p-id="3534" xmlns:xlink="http://www.w3.org/1999/xlink" width="128" height="128"><defs><style type="text/css"></style></defs><path d="M886.784 61.952c-3.072-18.432-20.48-30.72-38.912-27.648l-19.456 3.072c-18.432 3.072-30.72 20.48-27.648 38.912l137.216 819.2 59.904 92.16 26.624-105.472-137.728-820.224zM67.072 905.216h613.376c5.12 0 19.968 0.512 19.968-12.8V84.992 50.688c0-11.776-9.728-21.504-21.504-21.504h-0.512c-3.072-0.512-6.144 0-11.264 0H67.584C30.72 29.184 0 59.904 0 96.768V926.72c0 37.376 30.72 67.584 67.584 67.584H689.152c5.12 0 9.728-4.096 9.728-9.728v-0.512c0-5.12-4.096-9.728-9.728-9.728H67.584c-18.432 0-33.792-15.36-33.792-33.792v-2.048c-0.512-17.92 14.848-33.28 33.28-33.28zM296.448 314.88l53.76-109.056 53.76 109.056 120.32 17.408-87.04 84.992 20.48 119.808-107.52-56.832-107.52 56.832 20.48-119.808L175.616 332.8l120.832-17.92z" p-id="3535" fill="#2CAF7D"></path></svg>